<?xml version="1.0" encoding="UTF-8"?>
<svg xmlns="http://www.w3.org/2000/svg" xmlns:xlink="http://www.w3.org/1999/xlink" width="80pt" height="80pt" viewBox="0 0 80 80" version="1.1">
<g id="surface1">
<path style=" stroke:none;fill-rule:nonzero;fill:rgb(0%,0%,0%);fill-opacity:1;" d="M 0 0 L 0 79.976562 L 79.976562 79.976562 L 79.976562 72.570312 L 7.40625 72.570312 L 7.40625 0 Z M 0 0 "/>
<path style=" stroke:none;fill-rule:nonzero;fill:rgb(0%,0%,0%);fill-opacity:1;" d="M 41.839844 66.902344 C 33.929688 66.902344 27.523438 60.492188 27.523438 52.582031 C 27.523438 44.675781 33.929688 38.261719 41.839844 38.261719 C 49.75 38.261719 56.164062 44.675781 56.164062 52.582031 C 56.164062 60.492188 49.75 66.902344 41.839844 66.902344 M 41.839844 45.703125 C 38.023438 45.703125 34.929688 48.800781 34.929688 52.617188 C 34.929688 56.433594 38.023438 59.53125 41.839844 59.53125 C 45.660156 59.53125 48.757812 56.433594 48.757812 52.617188 C 48.757812 48.800781 45.660156 45.703125 41.839844 45.703125 "/>
<path style=" stroke:none;fill-rule:nonzero;fill:rgb(0%,0%,0%);fill-opacity:1;" d="M 72.816406 0.171875 L 16.449219 0.171875 L 16.449219 31.605469 L 72.816406 31.605469 L 72.816406 60.742188 L 80.222656 60.742188 L 80.222656 0.171875 Z M 23.855469 7.582031 L 72.816406 7.582031 L 72.816406 24.195312 L 23.855469 24.195312 Z M 23.855469 7.582031 "/>
</g>
</svg>
